<svg width="128" height="128" viewBox="0 0 128 128" fill="none" xmlns="http://www.w3.org/2000/svg">
    <path d="M14.6182 3.74525C39.068 -6.38665 60.3632 4.56837 66.0567 30.2028C41.607 40.3348 20.3116 29.3797 14.6182 3.74525Z" fill="#72D13B"/>
    <path d="M66.0567 30.2035L14.6182 3.7459C39.068 -6.38603 60.3632 4.56447 66.0567 30.2035Z" fill="#7DD54D"/>
    <path d="M113.377 3.74525C88.9273 -6.38665 67.6319 4.56837 61.9385 30.2028C86.3882 40.3348 107.684 29.3797 113.377 3.74525Z" fill="#72D13B"/>
    <path d="M61.9385 30.2035L113.377 3.7459C88.9273 -6.38603 67.6319 4.56447 61.9385 30.2035Z" fill="#7DD54D"/>
    <path d="M58.3234 126.518C62.0244 127.605 65.9732 127.605 69.6736 126.518C109.794 114.749 123.142 93.9574 126.911 77.2637C130.47 61.5061 125.176 45.1806 112.591 33.2161C89.0452 10.8195 63.9985 26.1901 63.9985 26.1901C63.9985 26.1901 38.952 10.8195 15.4067 33.2115C2.8214 45.1806 -2.47261 61.5019 1.08581 77.2591C4.85545 93.9574 18.2029 114.749 58.3234 126.518Z" fill="#F46C69"/>
    <path d="M126.912 77.2629C123.142 93.9616 109.795 114.748 69.6738 126.517C65.9733 127.604 62.0245 127.604 58.3236 126.517C18.2031 114.748 4.85564 93.9569 1.086 77.2629C-0.14912 71.7879 -0.319006 66.2445 0.516647 60.8418C0.695719 62.3969 0.962023 63.9524 1.31098 65.5029C5.06684 82.1424 18.3684 102.856 58.3467 114.58C62.0335 115.662 65.9686 115.662 69.6555 114.58C109.634 102.852 122.931 82.1377 126.691 65.5029C127.04 63.9524 127.307 62.3969 127.485 60.8418C128.317 66.2445 128.151 71.7879 126.912 77.2629Z" fill="#EA5555"/>
    <path d="M28.3028 92.8397C29.063 92.6229 29.5551 92.0203 29.402 91.4942C29.2489 90.9681 28.5085 90.7175 27.7483 90.9347C26.9881 91.1519 26.4959 91.7541 26.649 92.2802C26.8021 92.8063 27.5425 93.0569 28.3028 92.8397Z" fill="#DC7373"/>
    <path d="M101.363 92.246C101.516 91.7199 101.024 91.1173 100.264 90.9005C99.5034 90.6833 98.7627 90.9339 98.61 91.46C98.4568 91.9861 98.9487 92.5887 99.7091 92.8055C100.469 93.0227 101.21 92.7721 101.363 92.246Z" fill="#DC7373"/>
    <path d="M38.5896 59.8139C45.2995 59.8139 50.7386 54.2494 50.7386 47.3854C50.7386 40.5214 45.2995 34.957 38.5896 34.957C31.8798 34.957 26.4404 40.5214 26.4404 47.3854C26.4404 54.2494 31.8798 59.8139 38.5896 59.8139Z" fill="#F7F7F7"/>
    <path d="M40.3302 55.6665C44.8007 55.6665 48.4252 51.9592 48.4252 47.3856C48.4252 42.812 44.8007 39.1045 40.3302 39.1045C35.8595 39.1045 32.2354 42.812 32.2354 47.3856C32.2354 51.9592 35.8595 55.6665 40.3302 55.6665Z" fill="#422112"/>
    <path d="M85.8725 59.8139C92.5827 59.8139 98.0219 54.2494 98.0219 47.3854C98.0219 40.5214 92.5827 34.957 85.8725 34.957C79.1628 34.957 73.7236 40.5214 73.7236 47.3854C73.7236 54.2494 79.1628 59.8139 85.8725 59.8139Z" fill="#F7F7F7"/>
    <path d="M84.124 55.6665C88.5946 55.6665 92.2192 51.9592 92.2192 47.3856C92.2192 42.812 88.5946 39.1045 84.124 39.1045C79.6534 39.1045 76.0293 42.812 76.0293 47.3856C76.0293 51.9592 79.6534 55.6665 84.124 55.6665Z" fill="#422112"/>
    <path d="M61.9989 68.3668C59.1565 68.3668 56.3831 67.1528 54.115 64.952C53.1831 64.0514 53.2838 62.5369 54.3356 61.7729C55.171 61.1682 56.3238 61.259 57.0628 61.9732C58.5873 63.451 60.3827 64.2471 62.1641 64.1968H62.2238H62.2835C64.0648 64.2471 65.8603 63.451 67.3847 61.9732C68.1237 61.2548 69.2762 61.1635 70.112 61.7729C71.1543 62.528 71.2734 64.0333 70.3505 64.9291C68.0183 67.2026 65.1533 68.4306 62.2238 68.3626C62.1457 68.3668 62.0723 68.3668 61.9989 68.3668Z" fill="#422112"/>
    <path d="M26.538 35.1834C25.3902 34.2829 25.2754 32.6003 26.2855 31.5544C28.6685 29.0896 31.4831 27.0705 34.5916 25.5971C35.9093 24.9696 37.4888 25.6063 37.9939 26.966C38.4347 28.1574 37.8837 29.4807 36.7266 30.0355C34.1783 31.2543 31.8275 32.9414 29.8623 34.9605C28.9761 35.87 27.539 35.9655 26.538 35.1834Z" fill="#422112"/>
    <path d="M97.914 35.1834C99.0618 34.2829 99.1765 32.6003 98.1666 31.5544C95.7837 29.0896 92.969 27.0705 89.8607 25.5971C88.5427 24.9696 86.9632 25.6063 86.458 26.966C86.0173 28.1574 86.5685 29.4807 87.7257 30.0355C90.2737 31.2543 92.6247 32.9414 94.5899 34.9605C95.4761 35.87 96.9131 35.9655 97.914 35.1834Z" fill="#422112"/>
    <path d="M43.5033 44.828C44.1092 45.7281 45.2753 46.7968 45.8539 46.5014C46.3134 46.2648 46.3087 45.21 46.0514 44.4777C45.4728 42.8495 43.3105 41.9219 42.8006 42.3724C42.3828 42.7451 43.0118 44.1003 43.5033 44.828Z" fill="#F7F7F7"/>
    <path d="M87.3119 44.828C87.9178 45.7281 89.0839 46.7968 89.6624 46.5014C90.1219 46.2648 90.1172 45.21 89.86 44.4777C89.2814 42.8495 87.119 41.9219 86.6092 42.3724C86.1915 42.7451 86.8204 44.1003 87.3119 44.828Z" fill="#F7F7F7"/>
    <path d="M62.2421 97.8197C63.8983 102.246 68.216 105.373 73.2484 105.3C79.6398 105.208 84.7412 100.006 84.6477 93.6752C84.5545 87.345 79.3019 82.2925 72.9104 82.385C67.878 82.4579 63.6544 85.7088 62.1295 90.181L53.7424 90.3024L53.6295 82.6639L45.9173 82.7757L46.03 90.4141L42.1738 90.4697L42.2865 98.1084L62.2421 97.8197ZM73.023 90.0235C75.1535 89.9927 76.9044 91.6769 76.9354 93.787C76.9668 95.8973 75.266 97.6312 73.1356 97.6619C71.0051 97.6927 69.2542 96.0088 69.2231 93.8985C69.1921 91.7884 70.8925 90.0543 73.023 90.0235Z" fill="white"/>
</svg>
