<svg width="129" height="133" viewBox="0 0 129 133" fill="none" xmlns="http://www.w3.org/2000/svg">
    <path fill-rule="evenodd" clip-rule="evenodd" d="M16.7072 4.09351C36.0062 -3.90395 53.3398 1.23678 62.5866 16.3645C71.8333 1.23678 89.167 -3.90395 108.466 4.09351C106.128 14.6207 101.159 22.6723 94.4203 27.8045C100.295 29.4503 106.539 32.7226 112.68 38.5644C125.265 50.5289 130.559 66.8544 127 82.612C123.231 99.3057 109.883 120.097 69.7626 131.866C66.0622 132.953 62.1134 132.953 58.4124 131.866C18.2919 120.097 4.94445 99.3057 1.17481 82.6074C-2.38361 66.8502 2.91039 50.5289 15.4957 38.5598C20.9071 33.4134 26.3977 30.2618 31.6454 28.4598C24.4534 23.3705 19.1473 15.0802 16.7072 4.09351ZM35.3837 30.73C35.1461 30.7656 34.9094 30.8364 34.6806 30.9454C31.5721 32.4188 28.7575 34.4379 26.3745 36.9027C25.3644 37.9486 25.4792 39.6312 26.627 40.5317C27.628 41.3138 29.0651 41.2183 29.9513 40.3088C31.9165 38.2897 34.2673 36.6026 36.8156 35.3838C37.9727 34.829 38.5237 33.5057 38.0829 32.3143C38.0246 32.1574 37.9521 32.0102 37.8673 31.8734C37.0215 31.5281 36.1933 31.1468 35.3837 30.73ZM86.6169 32.1453C86.5918 32.2003 86.5684 32.2566 86.547 32.3143C86.1063 33.5057 86.6575 34.829 87.8147 35.3838C90.3627 36.6026 92.7137 38.2897 94.6789 40.3088C95.5651 41.2183 97.0021 41.3138 98.003 40.5317C99.1508 39.6312 99.2655 37.9486 98.2556 36.9027C95.8727 34.4379 93.058 32.4188 89.9497 30.9454C89.8416 30.8939 89.7318 30.8509 89.6209 30.8162C88.6457 31.3107 87.6437 31.7541 86.6169 32.1453ZM48.5141 52.7339C48.5141 57.3075 44.8896 61.0148 40.4191 61.0148C35.9484 61.0148 32.3244 57.3075 32.3244 52.7339C32.3244 48.1603 35.9484 44.4528 40.4191 44.4528C44.8896 44.4528 48.5141 48.1603 48.5141 52.7339ZM84.213 61.0148C88.6836 61.0148 92.3082 57.3075 92.3082 52.7339C92.3082 48.1603 88.6836 44.4528 84.213 44.4528C79.7424 44.4528 76.1183 48.1603 76.1183 52.7339C76.1183 57.3075 79.7424 61.0148 84.213 61.0148ZM54.204 70.3003C56.4721 72.5011 59.2455 73.7151 62.0879 73.7151C62.1613 73.7151 62.2348 73.7151 62.3128 73.7109C65.2423 73.7789 68.1073 72.5509 70.4395 70.2774C71.3624 69.3816 71.2433 67.8763 70.201 67.1212C69.3652 66.5118 68.2127 66.6031 67.4737 67.3215C65.9493 68.7993 64.1538 69.5954 62.3725 69.5451H62.2531C60.4717 69.5954 58.6763 68.7993 57.1518 67.3215C56.4128 66.6073 55.26 66.5165 54.4246 67.1212C53.3728 67.8852 53.2721 69.3997 54.204 70.3003ZM62.3311 103.168C63.9873 107.594 68.305 110.721 73.3374 110.648C79.7288 110.556 84.8302 105.354 84.7367 99.0234C84.6435 92.6932 79.3909 87.6407 72.9994 87.7332C67.967 87.8061 63.7434 91.057 62.2185 95.5292L53.8314 95.6506L53.7185 88.0121L46.0063 88.1239L46.119 95.7623L42.2628 95.8179L42.3755 103.457L62.3311 103.168Z" fill="white"/>
</svg>
